<svg xmlns="http://www.w3.org/2000/svg" viewBox="0 0 400 400"><defs><style>.cls-1{fill:#fff;}</style></defs><g id="Layer_2" data-name="Layer 2"><g id="Layer_1-2" data-name="Layer 1"><path class="cls-1" d="M0,144H16V128A16,16,0,0,0,0,144"/><path class="cls-1" d="M0,192H16V176A16,16,0,0,0,0,192"/><rect class="cls-1" y="192" width="16" height="16"/><path class="cls-1" d="M0,240H16V224A16,16,0,0,0,0,240"/><rect class="cls-1" x="16" y="128" width="16" height="16"/><rect class="cls-1" x="16" y="144" width="16" height="16"/><rect class="cls-1" x="16" y="160" width="16" height="16"/><rect class="cls-1" x="16" y="192" width="16" height="16"/><rect class="cls-1" x="16" y="208" width="16" height="16"/><path class="cls-1" d="M32,224H16v16a16,16,0,0,0,16-16"/><path class="cls-1" d="M16,272H32V256a16,16,0,0,0-16,16"/><rect class="cls-1" x="32" y="160" width="16" height="16"/><rect class="cls-1" x="32" y="176" width="16" height="16"/><rect class="cls-1" x="32" y="192" width="16" height="16"/><rect class="cls-1" x="32" y="208" width="16" height="16"/><path class="cls-1" d="M32,256H48V240a16,16,0,0,0-16,16"/><path class="cls-1" d="M48,256H32v16a16,16,0,0,0,16-16"/><rect class="cls-1" x="48" y="160" width="16" height="16"/><rect class="cls-1" x="48" y="208" width="16" height="16"/><path class="cls-1" d="M64,224H48v16a16,16,0,0,0,16-16"/><path class="cls-1" d="M64,144H80V128a16,16,0,0,0-16,16"/><rect class="cls-1" x="64" y="144" width="16" height="16"/><rect class="cls-1" x="64" y="160" width="16" height="16"/><rect class="cls-1" x="64" y="176" width="16" height="16"/><rect class="cls-1" x="80" y="128" width="16" height="16"/><path class="cls-1" d="M96,176H80v16a16,16,0,0,0,16-16"/><path class="cls-1" d="M80,272H96V256a16,16,0,0,0-16,16"/><rect class="cls-1" x="96" y="128" width="16" height="16"/><path class="cls-1" d="M96,176h16V160a16,16,0,0,0-16,16"/><path class="cls-1" d="M96,208h16V192a16,16,0,0,0-16,16"/><path class="cls-1" d="M96,240h16V224a16,16,0,0,0-16,16"/><rect class="cls-1" x="96" y="256" width="16" height="16"/><rect class="cls-1" x="112" y="128" width="16" height="16"/><rect class="cls-1" x="112" y="160" width="16" height="16"/><rect class="cls-1" x="112" y="176" width="16" height="16"/><path class="cls-1" d="M128,192H112v16a16,16,0,0,0,16-16"/><rect class="cls-1" x="112" y="224" width="16" height="16"/><rect class="cls-1" x="112" y="240" width="16" height="16"/><rect class="cls-1" x="112" y="256" width="16" height="16"/><path class="cls-1" d="M128,16h16V0a16,16,0,0,0-16,16"/><rect class="cls-1" x="128" y="16" width="16" height="16"/><path class="cls-1" d="M144,32H128V48a16,16,0,0,0,16-16"/><path class="cls-1" d="M128,96h16V80a16,16,0,0,0-16,16"/><path class="cls-1" d="M144,96H128v16a16,16,0,0,0,16-16"/><rect class="cls-1" x="128" y="128" width="16" height="16"/><rect class="cls-1" x="128" y="144" width="16" height="16"/><rect class="cls-1" x="128" y="160" width="16" height="16"/><path class="cls-1" d="M144,208h-8a8,8,0,0,0-8,8v8h8a8,8,0,0,0,8-8"/><rect class="cls-1" x="128" y="256" width="16" height="16"/><rect class="cls-1" x="128" y="272" width="16" height="16"/><rect class="cls-1" x="128" y="288" width="16" height="16"/><rect class="cls-1" x="128" y="304" width="16" height="16"/><path class="cls-1" d="M144,320H128v16a16,16,0,0,0,16-16"/><path class="cls-1" d="M128,384h16V368a16,16,0,0,0-16,16"/><rect class="cls-1" x="128" y="384" width="16" height="16"/><rect class="cls-1" x="144" width="16" height="16"/><path class="cls-1" d="M160,16H144V32a16,16,0,0,0,16-16"/><path class="cls-1" d="M144,64h16V48a16,16,0,0,0-16,16"/><rect class="cls-1" x="144" y="64" width="16" height="16"/><rect class="cls-1" x="144" y="80" width="16" height="16"/><rect class="cls-1" x="144" y="128" width="16" height="16"/><rect class="cls-1" x="144" y="144" width="16" height="16"/><path class="cls-1" d="M160,160H144v16a16,16,0,0,0,16-16"/><path class="cls-1" d="M144,240h16V224a16,16,0,0,0-16,16"/><rect class="cls-1" x="144" y="240" width="16" height="16"/><rect class="cls-1" x="144" y="288" width="16" height="16"/><rect class="cls-1" x="144" y="304" width="16" height="16"/><path class="cls-1" d="M144,352h16V336a16,16,0,0,0-16,16"/><rect class="cls-1" x="144" y="368" width="16" height="16"/><rect class="cls-1" x="144" y="384" width="16" height="16"/><path class="cls-1" d="M176,0H160V16A16,16,0,0,0,176,0"/><path class="cls-1" d="M160,48h16V32a16,16,0,0,0-16,16"/><rect class="cls-1" x="160" y="48" width="16" height="16"/><rect class="cls-1" x="160" y="64" width="16" height="16"/><rect class="cls-1" x="160" y="80" width="16" height="16"/><path class="cls-1" d="M176,96H160v16a16,16,0,0,0,16-16"/><rect class="cls-1" x="160" y="128" width="16" height="16"/><path class="cls-1" d="M176,176h-8a8,8,0,0,0-8,8v8h8a8,8,0,0,0,8-8"/><rect class="cls-1" x="160" y="224" width="16" height="16"/><rect class="cls-1" x="160" y="240" width="16" height="16"/><path class="cls-1" d="M160,288h16V272a16,16,0,0,0-16,16"/><rect class="cls-1" x="160" y="304" width="16" height="16"/><rect class="cls-1" x="160" y="320" width="16" height="16"/><rect class="cls-1" x="160" y="336" width="16" height="16"/><path class="cls-1" d="M176,352H160v16a16,16,0,0,0,16-16"/><path class="cls-1" d="M176,384H160v16a16,16,0,0,0,16-16"/><path class="cls-1" d="M176,32h16V16a16,16,0,0,0-16,16"/><rect class="cls-1" x="176" y="48" width="16" height="16"/><path class="cls-1" d="M192,64H176V80a16,16,0,0,0,16-16"/><path class="cls-1" d="M176,128h16V112a16,16,0,0,0-16,16"/><rect class="cls-1" x="176" y="128" width="16" height="16"/><rect class="cls-1" x="176" y="144" width="16" height="16"/><rect class="cls-1" x="176" y="224" width="16" height="16"/><rect class="cls-1" x="176" y="240" width="16" height="16"/><path class="cls-1" d="M192,272H176v16a16,16,0,0,0,16-16"/><rect class="cls-1" x="176" y="304" width="16" height="16"/><rect class="cls-1" x="176" y="320" width="16" height="16"/><path class="cls-1" d="M192,336H176v16a16,16,0,0,0,16-16"/><path class="cls-1" d="M192,16h16V0a16,16,0,0,0-16,16"/><path class="cls-1" d="M208,16H192V32a16,16,0,0,0,16-16"/><path class="cls-1" d="M208,48H192V64a16,16,0,0,0,16-16"/><path class="cls-1" d="M192,96h16V80a16,16,0,0,0-16,16"/><path class="cls-1" d="M208,96H192v16a16,16,0,0,0,16-16"/><rect class="cls-1" x="192" y="144" width="16" height="16"/><path class="cls-1" d="M192,192h16V176a16,16,0,0,0-16,16"/><rect class="cls-1" x="192" y="192" width="16" height="16"/><rect class="cls-1" x="192" y="240" width="16" height="16"/><rect class="cls-1" x="192" y="256" width="16" height="16"/><path class="cls-1" d="M192,304h16V288a16,16,0,0,0-16,16"/><rect class="cls-1" x="192" y="304" width="16" height="16"/><path class="cls-1" d="M192,400h16V384a16,16,0,0,0-16,16"/><path class="cls-1" d="M208,48h16V32a16,16,0,0,0-16,16"/><path class="cls-1" d="M208,144h16V128a16,16,0,0,0-16,16"/><path class="cls-1" d="M224,144H208v16a16,16,0,0,0,16-16"/><rect class="cls-1" x="208" y="192" width="16" height="16"/><rect class="cls-1" x="208" y="240" width="16" height="16"/><path class="cls-1" d="M224,256H208v16a16,16,0,0,0,16-16"/><rect class="cls-1" x="208" y="288" width="16" height="16"/><path class="cls-1" d="M224,304H208v16a16,16,0,0,0,16-16"/><path class="cls-1" d="M208,384h16V368a16,16,0,0,0-16,16"/><rect class="cls-1" x="208" y="384" width="16" height="16"/><path class="cls-1" d="M224,16h16V0a16,16,0,0,0-16,16"/><rect class="cls-1" x="224" y="16" width="16" height="16"/><rect class="cls-1" x="224" y="32" width="16" height="16"/><rect class="cls-1" x="224" y="48" width="16" height="16"/><path class="cls-1" d="M224,96h16V80a16,16,0,0,0-16,16"/><rect class="cls-1" x="224" y="96" width="16" height="16"/><rect class="cls-1" x="224" y="112" width="16" height="16"/><rect class="cls-1" x="224" y="128" width="16" height="16"/><rect class="cls-1" x="224" y="192" width="16" height="16"/><path class="cls-1" d="M240,208H224v16a16,16,0,0,0,16-16"/><rect class="cls-1" x="224" y="240" width="16" height="16"/><path class="cls-1" d="M240,272h-8a8,8,0,0,0-8,8v8h8a8,8,0,0,0,8-8"/><path class="cls-1" d="M224,352h16V336a16,16,0,0,0-16,16"/><path class="cls-1" d="M240,352H224v16a16,16,0,0,0,16-16"/><path class="cls-1" d="M240,384H224v16a16,16,0,0,0,16-16"/><rect class="cls-1" x="240" y="48" width="16" height="16"/><path class="cls-1" d="M256,80H240V96a16,16,0,0,0,16-16"/><path class="cls-1" d="M256,128H240v16a16,16,0,0,0,16-16"/><path class="cls-1" d="M240,192h16V176a16,16,0,0,0-16,16"/><path class="cls-1" d="M256,192H240v16a16,16,0,0,0,16-16"/><rect class="cls-1" x="240" y="240" width="16" height="16"/><path class="cls-1" d="M240,320h16V304a16,16,0,0,0-16,16"/><rect class="cls-1" x="240" y="320" width="16" height="16"/><path class="cls-1" d="M256,336H240v16a16,16,0,0,0,16-16"/><path class="cls-1" d="M256,16h16V0a16,16,0,0,0-16,16"/><path class="cls-1" d="M272,16H256V32a16,16,0,0,0,16-16"/><path class="cls-1" d="M272,48H256V64a16,16,0,0,0,16-16"/><path class="cls-1" d="M256,112h16V96a16,16,0,0,0-16,16"/><path class="cls-1" d="M272,112H256v16a16,16,0,0,0,16-16"/><path class="cls-1" d="M256,160h16V144a16,16,0,0,0-16,16"/><path class="cls-1" d="M256,224h16V208a16,16,0,0,0-16,16"/><rect class="cls-1" x="256" y="224" width="16" height="16"/><rect class="cls-1" x="256" y="240" width="16" height="16"/><rect class="cls-1" x="256" y="256" width="16" height="16"/><rect class="cls-1" x="256" y="272" width="16" height="16"/><rect class="cls-1" x="256" y="288" width="16" height="16"/><rect class="cls-1" x="256" y="304" width="16" height="16"/><rect class="cls-1" x="256" y="320" width="16" height="16"/><path class="cls-1" d="M272,368h-8a8,8,0,0,0-8,8v8h8a8,8,0,0,0,8-8"/><path class="cls-1" d="M272,144h16V128a16,16,0,0,0-16,16"/><rect class="cls-1" x="272" y="144" width="16" height="16"/><rect class="cls-1" x="272" y="160" width="16" height="16"/><path class="cls-1" d="M288,208H272v16a16,16,0,0,0,16-16"/><rect class="cls-1" x="272" y="256" width="16" height="16"/><rect class="cls-1" x="272" y="320" width="16" height="16"/><path class="cls-1" d="M272,400h16V384a16,16,0,0,0-16,16"/><rect class="cls-1" x="288" y="144" width="16" height="16"/><rect class="cls-1" x="288" y="160" width="16" height="16"/><path class="cls-1" d="M304,176H288v16a16,16,0,0,0,16-16"/><rect class="cls-1" x="288" y="256" width="16" height="16"/><path class="cls-1" d="M304,288h-8a8,8,0,0,0-8,8v8h8a8,8,0,0,0,8-8"/><rect class="cls-1" x="288" y="320" width="16" height="16"/><path class="cls-1" d="M304,384H288v16a16,16,0,0,0,16-16"/><path class="cls-1" d="M304,144h16V128a16,16,0,0,0-16,16"/><rect class="cls-1" x="304" y="144" width="16" height="16"/><path class="cls-1" d="M320,160H304v16a16,16,0,0,0,16-16"/><path class="cls-1" d="M304,224h16V208a16,16,0,0,0-16,16"/><path class="cls-1" d="M304,256h16V240a16,16,0,0,0-16,16"/><rect class="cls-1" x="304" y="256" width="16" height="16"/><rect class="cls-1" x="304" y="320" width="16" height="16"/><path class="cls-1" d="M320,368h-8a8,8,0,0,0-8,8v8h8a8,8,0,0,0,8-8"/><path class="cls-1" d="M320,192h16V176a16,16,0,0,0-16,16"/><rect class="cls-1" x="320" y="192" width="16" height="16"/><path class="cls-1" d="M336,208H320v16a16,16,0,0,0,16-16"/><rect class="cls-1" x="320" y="240" width="16" height="16"/><rect class="cls-1" x="320" y="256" width="16" height="16"/><rect class="cls-1" x="320" y="272" width="16" height="16"/><rect class="cls-1" x="320" y="288" width="16" height="16"/><rect class="cls-1" x="320" y="304" width="16" height="16"/><rect class="cls-1" x="320" y="320" width="16" height="16"/><path class="cls-1" d="M336,384h-8a8,8,0,0,0-8,8v8h8a8,8,0,0,0,8-8"/><path class="cls-1" d="M352,144h-8a8,8,0,0,0-8,8v8h8a8,8,0,0,0,8-8"/><rect class="cls-1" x="336" y="192" width="16" height="16"/><rect class="cls-1" x="336" y="256" width="16" height="16"/><rect class="cls-1" x="336" y="272" width="16" height="16"/><rect class="cls-1" x="336" y="320" width="16" height="16"/><path class="cls-1" d="M336,368h16V352a16,16,0,0,0-16,16"/><rect class="cls-1" x="336" y="368" width="16" height="16"/><path class="cls-1" d="M352,144h16V128a16,16,0,0,0-16,16"/><rect class="cls-1" x="352" y="192" width="16" height="16"/><rect class="cls-1" x="352" y="208" width="16" height="16"/><rect class="cls-1" x="352" y="224" width="16" height="16"/><path class="cls-1" d="M368,272H352v16a16,16,0,0,0,16-16"/><path class="cls-1" d="M352,320h16V304a16,16,0,0,0-16,16"/><rect class="cls-1" x="352" y="320" width="16" height="16"/><path class="cls-1" d="M368,336H352v16a16,16,0,0,0,16-16"/><rect class="cls-1" x="352" y="368" width="16" height="16"/><path class="cls-1" d="M368,384H352v16a16,16,0,0,0,16-16"/><rect class="cls-1" x="368" y="128" width="16" height="16"/><rect class="cls-1" x="368" y="144" width="16" height="16"/><rect class="cls-1" x="368" y="160" width="16" height="16"/><rect class="cls-1" x="368" y="176" width="16" height="16"/><path class="cls-1" d="M384,192H368v16a16,16,0,0,0,16-16"/><rect class="cls-1" x="368" y="224" width="16" height="16"/><path class="cls-1" d="M368,272h16V256a16,16,0,0,0-16,16"/><path class="cls-1" d="M368,304h16V288a16,16,0,0,0-16,16"/><rect class="cls-1" x="368" y="304" width="16" height="16"/><path class="cls-1" d="M384,320H368v16a16,16,0,0,0,16-16"/><rect class="cls-1" x="384" y="128" width="16" height="16"/><rect class="cls-1" x="384" y="144" width="16" height="16"/><path class="cls-1" d="M400,160H384v16a16,16,0,0,0,16-16"/><path class="cls-1" d="M384,224h16V208a16,16,0,0,0-16,16"/><rect class="cls-1" x="384" y="224" width="16" height="16"/><rect class="cls-1" x="384" y="240" width="16" height="16"/><path class="cls-1" d="M400,256H384v16a16,16,0,0,0,16-16"/><path class="cls-1" d="M400,288H384v16a16,16,0,0,0,16-16"/><path class="cls-1" d="M400,336h-8a8,8,0,0,0-8,8v8h8a8,8,0,0,0,8-8"/><path class="cls-1" d="M400,384h-8a8,8,0,0,0-8,8v8h8a8,8,0,0,0,8-8"/><path class="cls-1" d="M0,16H16V0A16,16,0,0,0,0,16"/><rect class="cls-1" y="16" width="16" height="16"/><rect class="cls-1" y="32" width="16" height="16"/><rect class="cls-1" y="48" width="16" height="16"/><rect class="cls-1" y="64" width="16" height="16"/><rect class="cls-1" y="80" width="16" height="16"/><rect class="cls-1" y="96" width="16" height="16"/><rect class="cls-1" x="16" width="16" height="16"/><rect class="cls-1" x="16" y="96" width="16" height="16"/><rect class="cls-1" x="32" width="16" height="16"/><rect class="cls-1" x="32" y="96" width="16" height="16"/><rect class="cls-1" x="48" width="16" height="16"/><rect class="cls-1" x="48" y="96" width="16" height="16"/><rect class="cls-1" x="64" width="16" height="16"/><rect class="cls-1" x="64" y="96" width="16" height="16"/><rect class="cls-1" x="80" width="16" height="16"/><rect class="cls-1" x="80" y="96" width="16" height="16"/><rect class="cls-1" x="96" width="16" height="16"/><rect class="cls-1" x="96" y="16" width="16" height="16"/><rect class="cls-1" x="96" y="32" width="16" height="16"/><rect class="cls-1" x="96" y="48" width="16" height="16"/><rect class="cls-1" x="96" y="64" width="16" height="16"/><rect class="cls-1" x="96" y="80" width="16" height="16"/><path class="cls-1" d="M112,96H96v16a16,16,0,0,0,16-16"/><path class="cls-1" d="M32,48H48V32A16,16,0,0,0,32,48"/><rect class="cls-1" x="32" y="48" width="16" height="16"/><rect class="cls-1" x="32" y="64" width="16" height="16"/><rect class="cls-1" x="48" y="32" width="16" height="16"/><rect class="cls-1" x="48" y="48" width="16" height="16"/><rect class="cls-1" x="48" y="64" width="16" height="16"/><rect class="cls-1" x="64" y="32" width="16" height="16"/><rect class="cls-1" x="64" y="48" width="16" height="16"/><path class="cls-1" d="M80,64H64V80A16,16,0,0,0,80,64"/><path class="cls-1" d="M288,16h16V0a16,16,0,0,0-16,16"/><rect class="cls-1" x="288" y="16" width="16" height="16"/><rect class="cls-1" x="288" y="32" width="16" height="16"/><rect class="cls-1" x="288" y="48" width="16" height="16"/><rect class="cls-1" x="288" y="64" width="16" height="16"/><rect class="cls-1" x="288" y="80" width="16" height="16"/><rect class="cls-1" x="288" y="96" width="16" height="16"/><rect class="cls-1" x="304" width="16" height="16"/><rect class="cls-1" x="304" y="96" width="16" height="16"/><rect class="cls-1" x="320" width="16" height="16"/><rect class="cls-1" x="320" y="96" width="16" height="16"/><rect class="cls-1" x="336" width="16" height="16"/><rect class="cls-1" x="336" y="96" width="16" height="16"/><rect class="cls-1" x="352" width="16" height="16"/><rect class="cls-1" x="352" y="96" width="16" height="16"/><rect class="cls-1" x="368" width="16" height="16"/><rect class="cls-1" x="368" y="96" width="16" height="16"/><rect class="cls-1" x="384" width="16" height="16"/><rect class="cls-1" x="384" y="16" width="16" height="16"/><rect class="cls-1" x="384" y="32" width="16" height="16"/><rect class="cls-1" x="384" y="48" width="16" height="16"/><rect class="cls-1" x="384" y="64" width="16" height="16"/><rect class="cls-1" x="384" y="80" width="16" height="16"/><path class="cls-1" d="M400,96H384v16a16,16,0,0,0,16-16"/><path class="cls-1" d="M320,48h16V32a16,16,0,0,0-16,16"/><rect class="cls-1" x="320" y="48" width="16" height="16"/><rect class="cls-1" x="320" y="64" width="16" height="16"/><rect class="cls-1" x="336" y="32" width="16" height="16"/><rect class="cls-1" x="336" y="48" width="16" height="16"/><rect class="cls-1" x="336" y="64" width="16" height="16"/><rect class="cls-1" x="352" y="32" width="16" height="16"/><rect class="cls-1" x="352" y="48" width="16" height="16"/><path class="cls-1" d="M368,64H352V80a16,16,0,0,0,16-16"/><path class="cls-1" d="M0,304H16V288A16,16,0,0,0,0,304"/><rect class="cls-1" y="304" width="16" height="16"/><rect class="cls-1" y="320" width="16" height="16"/><rect class="cls-1" y="336" width="16" height="16"/><rect class="cls-1" y="352" width="16" height="16"/><rect class="cls-1" y="368" width="16" height="16"/><rect class="cls-1" y="384" width="16" height="16"/><rect class="cls-1" x="16" y="288" width="16" height="16"/><rect class="cls-1" x="16" y="384" width="16" height="16"/><rect class="cls-1" x="32" y="288" width="16" height="16"/><rect class="cls-1" x="32" y="384" width="16" height="16"/><rect class="cls-1" x="48" y="288" width="16" height="16"/><rect class="cls-1" x="48" y="384" width="16" height="16"/><rect class="cls-1" x="64" y="288" width="16" height="16"/><rect class="cls-1" x="64" y="384" width="16" height="16"/><rect class="cls-1" x="80" y="288" width="16" height="16"/><rect class="cls-1" x="80" y="384" width="16" height="16"/><rect class="cls-1" x="96" y="288" width="16" height="16"/><rect class="cls-1" x="96" y="304" width="16" height="16"/><rect class="cls-1" x="96" y="320" width="16" height="16"/><rect class="cls-1" x="96" y="336" width="16" height="16"/><rect class="cls-1" x="96" y="352" width="16" height="16"/><rect class="cls-1" x="96" y="368" width="16" height="16"/><path class="cls-1" d="M112,384H96v16a16,16,0,0,0,16-16"/><path class="cls-1" d="M32,336H48V320a16,16,0,0,0-16,16"/><rect class="cls-1" x="32" y="336" width="16" height="16"/><rect class="cls-1" x="32" y="352" width="16" height="16"/><rect class="cls-1" x="48" y="320" width="16" height="16"/><rect class="cls-1" x="48" y="336" width="16" height="16"/><rect class="cls-1" x="48" y="352" width="16" height="16"/><rect class="cls-1" x="64" y="320" width="16" height="16"/><rect class="cls-1" x="64" y="336" width="16" height="16"/><path class="cls-1" d="M80,352H64v16a16,16,0,0,0,16-16"/></g></g></svg>