<svg xmlns="http://www.w3.org/2000/svg" viewBox="0 0 400 400"><defs><style>.cls-1{fill:#fff;}</style></defs><g id="Layer_2" data-name="Layer 2"><g id="Layer_1-2" data-name="Layer 1"><path class="cls-1" d="M0,192H16V176A16,16,0,0,0,0,192"/><rect class="cls-1" y="192" width="16" height="16"/><rect class="cls-1" y="208" width="16" height="16"/><path class="cls-1" d="M16,160H32V144a16,16,0,0,0-16,16"/><path class="cls-1" d="M32,160H16v16a16,16,0,0,0,16-16"/><rect class="cls-1" x="16" y="208" width="16" height="16"/><rect class="cls-1" x="16" y="224" width="16" height="16"/><path class="cls-1" d="M32,208H48V192a16,16,0,0,0-16,16"/><path class="cls-1" d="M48,224H32v16a16,16,0,0,0,16-16"/><path class="cls-1" d="M32,272H48V256a16,16,0,0,0-16,16"/><path class="cls-1" d="M48,144H64V128a16,16,0,0,0-16,16"/><path class="cls-1" d="M64,192H48v16a16,16,0,0,0,16-16"/><rect class="cls-1" x="48" y="256" width="16" height="16"/><rect class="cls-1" x="64" y="128" width="16" height="16"/><path class="cls-1" d="M80,144H64v16a16,16,0,0,0,16-16"/><path class="cls-1" d="M64,240H80V224a16,16,0,0,0-16,16"/><rect class="cls-1" x="64" y="240" width="16" height="16"/><rect class="cls-1" x="64" y="256" width="16" height="16"/><path class="cls-1" d="M80,192H96V176a16,16,0,0,0-16,16"/><rect class="cls-1" x="80" y="192" width="16" height="16"/><path class="cls-1" d="M96,208H80v16a16,16,0,0,0,16-16"/><rect class="cls-1" x="80" y="256" width="16" height="16"/><path class="cls-1" d="M112,128h-8a8,8,0,0,0-8,8v8h8a8,8,0,0,0,8-8"/><path class="cls-1" d="M96,176h16V160a16,16,0,0,0-16,16"/><path class="cls-1" d="M112,192H96v16a16,16,0,0,0,16-16"/><path class="cls-1" d="M96,240h16V224a16,16,0,0,0-16,16"/><rect class="cls-1" x="96" y="256" width="16" height="16"/><rect class="cls-1" x="112" y="160" width="16" height="16"/><rect class="cls-1" x="112" y="176" width="16" height="16"/><rect class="cls-1" x="112" y="224" width="16" height="16"/><rect class="cls-1" x="112" y="240" width="16" height="16"/><path class="cls-1" d="M128,256H112v16a16,16,0,0,0,16-16"/><path class="cls-1" d="M128,16h16V0a16,16,0,0,0-16,16"/><path class="cls-1" d="M144,16H128V32a16,16,0,0,0,16-16"/><path class="cls-1" d="M128,96h16V80a16,16,0,0,0-16,16"/><rect class="cls-1" x="128" y="96" width="16" height="16"/><rect class="cls-1" x="128" y="112" width="16" height="16"/><path class="cls-1" d="M128,160h16V144a16,16,0,0,0-16,16"/><path class="cls-1" d="M144,176H128v16a16,16,0,0,0,16-16"/><path class="cls-1" d="M128,224h16V208a16,16,0,0,0-16,16"/><path class="cls-1" d="M128,336h16V320a16,16,0,0,0-16,16"/><rect class="cls-1" x="128" y="336" width="16" height="16"/><path class="cls-1" d="M160,0H144V16A16,16,0,0,0,160,0"/><path class="cls-1" d="M160,48h-8a8,8,0,0,0-8,8v8h8a8,8,0,0,0,8-8"/><rect class="cls-1" x="144" y="112" width="16" height="16"/><rect class="cls-1" x="144" y="128" width="16" height="16"/><path class="cls-1" d="M160,144H144v16a16,16,0,0,0,16-16"/><path class="cls-1" d="M144,208h16V192a16,16,0,0,0-16,16"/><path class="cls-1" d="M160,208H144v16a16,16,0,0,0,16-16"/><path class="cls-1" d="M144,256h16V240a16,16,0,0,0-16,16"/><rect class="cls-1" x="144" y="256" width="16" height="16"/><path class="cls-1" d="M144,320h16V304a16,16,0,0,0-16,16"/><rect class="cls-1" x="144" y="320" width="16" height="16"/><rect class="cls-1" x="144" y="336" width="16" height="16"/><rect class="cls-1" x="144" y="352" width="16" height="16"/><rect class="cls-1" x="144" y="368" width="16" height="16"/><path class="cls-1" d="M160,32h16V16a16,16,0,0,0-16,16"/><rect class="cls-1" x="160" y="32" width="16" height="16"/><path class="cls-1" d="M160,80h16V64a16,16,0,0,0-16,16"/><rect class="cls-1" x="160" y="80" width="16" height="16"/><path class="cls-1" d="M176,96H160v16a16,16,0,0,0,16-16"/><path class="cls-1" d="M176,160h-8a8,8,0,0,0-8,8v8h8a8,8,0,0,0,8-8"/><rect class="cls-1" x="160" y="240" width="16" height="16"/><path class="cls-1" d="M176,256H160v16a16,16,0,0,0,16-16"/><rect class="cls-1" x="160" y="336" width="16" height="16"/><rect class="cls-1" x="160" y="368" width="16" height="16"/><rect class="cls-1" x="160" y="384" width="16" height="16"/><path class="cls-1" d="M176,16h16V0a16,16,0,0,0-16,16"/><rect class="cls-1" x="176" y="16" width="16" height="16"/><rect class="cls-1" x="176" y="32" width="16" height="16"/><rect class="cls-1" x="176" y="48" width="16" height="16"/><rect class="cls-1" x="176" y="80" width="16" height="16"/><path class="cls-1" d="M176,128h16V112a16,16,0,0,0-16,16"/><path class="cls-1" d="M176,160h16V144a16,16,0,0,0-16,16"/><path class="cls-1" d="M176,208h16V192a16,16,0,0,0-16,16"/><rect class="cls-1" x="176" y="240" width="16" height="16"/><path class="cls-1" d="M176,288h16V272a16,16,0,0,0-16,16"/><rect class="cls-1" x="176" y="288" width="16" height="16"/><rect class="cls-1" x="176" y="304" width="16" height="16"/><rect class="cls-1" x="176" y="320" width="16" height="16"/><path class="cls-1" d="M192,336H176v16a16,16,0,0,0,16-16"/><rect class="cls-1" x="176" y="384" width="16" height="16"/><rect class="cls-1" x="192" width="16" height="16"/><rect class="cls-1" x="192" y="48" width="16" height="16"/><rect class="cls-1" x="192" y="80" width="16" height="16"/><rect class="cls-1" x="192" y="96" width="16" height="16"/><rect class="cls-1" x="192" y="112" width="16" height="16"/><rect class="cls-1" x="192" y="144" width="16" height="16"/><path class="cls-1" d="M192,192h16V176a16,16,0,0,0-16,16"/><rect class="cls-1" x="192" y="192" width="16" height="16"/><rect class="cls-1" x="192" y="208" width="16" height="16"/><rect class="cls-1" x="192" y="240" width="16" height="16"/><rect class="cls-1" x="192" y="256" width="16" height="16"/><rect class="cls-1" x="192" y="288" width="16" height="16"/><rect class="cls-1" x="192" y="304" width="16" height="16"/><path class="cls-1" d="M208,384H192v16a16,16,0,0,0,16-16"/><rect class="cls-1" x="208" width="16" height="16"/><path class="cls-1" d="M208,48h16V32a16,16,0,0,0-16,16"/><rect class="cls-1" x="208" y="48" width="16" height="16"/><rect class="cls-1" x="208" y="64" width="16" height="16"/><rect class="cls-1" x="208" y="112" width="16" height="16"/><rect class="cls-1" x="208" y="128" width="16" height="16"/><rect class="cls-1" x="208" y="144" width="16" height="16"/><rect class="cls-1" x="208" y="208" width="16" height="16"/><rect class="cls-1" x="208" y="224" width="16" height="16"/><rect class="cls-1" x="208" y="240" width="16" height="16"/><rect class="cls-1" x="208" y="256" width="16" height="16"/><rect class="cls-1" x="208" y="304" width="16" height="16"/><path class="cls-1" d="M208,384h16V368a16,16,0,0,0-16,16"/><rect class="cls-1" x="224" width="16" height="16"/><rect class="cls-1" x="224" y="32" width="16" height="16"/><rect class="cls-1" x="224" y="48" width="16" height="16"/><rect class="cls-1" x="224" y="64" width="16" height="16"/><rect class="cls-1" x="224" y="80" width="16" height="16"/><path class="cls-1" d="M240,96H224v16a16,16,0,0,0,16-16"/><rect class="cls-1" x="224" y="144" width="16" height="16"/><rect class="cls-1" x="224" y="160" width="16" height="16"/><rect class="cls-1" x="224" y="176" width="16" height="16"/><rect class="cls-1" x="224" y="192" width="16" height="16"/><path class="cls-1" d="M240,208H224v16a16,16,0,0,0,16-16"/><rect class="cls-1" x="224" y="240" width="16" height="16"/><rect class="cls-1" x="224" y="256" width="16" height="16"/><rect class="cls-1" x="224" y="304" width="16" height="16"/><rect class="cls-1" x="224" y="320" width="16" height="16"/><rect class="cls-1" x="224" y="336" width="16" height="16"/><rect class="cls-1" x="224" y="368" width="16" height="16"/><rect class="cls-1" x="224" y="384" width="16" height="16"/><rect class="cls-1" x="240" width="16" height="16"/><path class="cls-1" d="M240,144h16V128a16,16,0,0,0-16,16"/><rect class="cls-1" x="240" y="160" width="16" height="16"/><rect class="cls-1" x="240" y="176" width="16" height="16"/><path class="cls-1" d="M240,240h16V224a16,16,0,0,0-16,16"/><rect class="cls-1" x="240" y="240" width="16" height="16"/><rect class="cls-1" x="240" y="256" width="16" height="16"/><path class="cls-1" d="M240,304h16V288a16,16,0,0,0-16,16"/><rect class="cls-1" x="240" y="304" width="16" height="16"/><rect class="cls-1" x="240" y="336" width="16" height="16"/><rect class="cls-1" x="240" y="352" width="16" height="16"/><path class="cls-1" d="M256,384H240v16a16,16,0,0,0,16-16"/><path class="cls-1" d="M272,0H256V16A16,16,0,0,0,272,0"/><path class="cls-1" d="M272,64h-8a8,8,0,0,0-8,8v8h8a8,8,0,0,0,8-8"/><path class="cls-1" d="M272,96h-8a8,8,0,0,0-8,8v8h8a8,8,0,0,0,8-8"/><rect class="cls-1" x="256" y="128" width="16" height="16"/><path class="cls-1" d="M272,176H256v16a16,16,0,0,0,16-16"/><rect class="cls-1" x="256" y="240" width="16" height="16"/><rect class="cls-1" x="256" y="256" width="16" height="16"/><rect class="cls-1" x="256" y="272" width="16" height="16"/><rect class="cls-1" x="256" y="288" width="16" height="16"/><rect class="cls-1" x="256" y="304" width="16" height="16"/><rect class="cls-1" x="256" y="320" width="16" height="16"/><path class="cls-1" d="M272,352H256v16a16,16,0,0,0,16-16"/><rect class="cls-1" x="272" y="128" width="16" height="16"/><rect class="cls-1" x="272" y="144" width="16" height="16"/><path class="cls-1" d="M288,160H272v16a16,16,0,0,0,16-16"/><path class="cls-1" d="M272,208h16V192a16,16,0,0,0-16,16"/><path class="cls-1" d="M288,208H272v16a16,16,0,0,0,16-16"/><rect class="cls-1" x="272" y="256" width="16" height="16"/><rect class="cls-1" x="272" y="320" width="16" height="16"/><rect class="cls-1" x="288" y="128" width="16" height="16"/><path class="cls-1" d="M304,176h-8a8,8,0,0,0-8,8v8h8a8,8,0,0,0,8-8"/><rect class="cls-1" x="288" y="256" width="16" height="16"/><path class="cls-1" d="M304,288h-8a8,8,0,0,0-8,8v8h8a8,8,0,0,0,8-8"/><rect class="cls-1" x="288" y="320" width="16" height="16"/><path class="cls-1" d="M288,400h16V384a16,16,0,0,0-16,16"/><path class="cls-1" d="M320,128H304v16a16,16,0,0,0,16-16"/><path class="cls-1" d="M304,176h16V160a16,16,0,0,0-16,16"/><path class="cls-1" d="M304,208h16V192a16,16,0,0,0-16,16"/><path class="cls-1" d="M320,208H304v16a16,16,0,0,0,16-16"/><path class="cls-1" d="M304,256h16V240a16,16,0,0,0-16,16"/><rect class="cls-1" x="304" y="256" width="16" height="16"/><rect class="cls-1" x="304" y="320" width="16" height="16"/><path class="cls-1" d="M304,384h16V368a16,16,0,0,0-16,16"/><rect class="cls-1" x="304" y="384" width="16" height="16"/><path class="cls-1" d="M336,160H320v16a16,16,0,0,0,16-16"/><path class="cls-1" d="M336,192H320v16a16,16,0,0,0,16-16"/><path class="cls-1" d="M320,240h16V224a16,16,0,0,0-16,16"/><rect class="cls-1" x="320" y="240" width="16" height="16"/><rect class="cls-1" x="320" y="256" width="16" height="16"/><rect class="cls-1" x="320" y="272" width="16" height="16"/><rect class="cls-1" x="320" y="288" width="16" height="16"/><rect class="cls-1" x="320" y="304" width="16" height="16"/><path class="cls-1" d="M336,320H320v16a16,16,0,0,0,16-16"/><path class="cls-1" d="M320,368h16V352a16,16,0,0,0-16,16"/><rect class="cls-1" x="320" y="368" width="16" height="16"/><rect class="cls-1" x="320" y="384" width="16" height="16"/><path class="cls-1" d="M352,144h-8a8,8,0,0,0-8,8v8h8a8,8,0,0,0,8-8"/><path class="cls-1" d="M352,224H336v16a16,16,0,0,0,16-16"/><rect class="cls-1" x="336" y="272" width="16" height="16"/><path class="cls-1" d="M352,288H336v16a16,16,0,0,0,16-16"/><rect class="cls-1" x="336" y="368" width="16" height="16"/><rect class="cls-1" x="336" y="384" width="16" height="16"/><path class="cls-1" d="M352,176h16V160a16,16,0,0,0-16,16"/><rect class="cls-1" x="352" y="176" width="16" height="16"/><path class="cls-1" d="M368,192H352v16a16,16,0,0,0,16-16"/><path class="cls-1" d="M352,272h16V256a16,16,0,0,0-16,16"/><path class="cls-1" d="M352,352h16V336a16,16,0,0,0-16,16"/><path class="cls-1" d="M368,352H352v16a16,16,0,0,0,16-16"/><rect class="cls-1" x="352" y="384" width="16" height="16"/><path class="cls-1" d="M368,144h16V128a16,16,0,0,0-16,16"/><rect class="cls-1" x="368" y="144" width="16" height="16"/><path class="cls-1" d="M384,176H368v16a16,16,0,0,0,16-16"/><path class="cls-1" d="M368,240h16V224a16,16,0,0,0-16,16"/><rect class="cls-1" x="368" y="256" width="16" height="16"/><path class="cls-1" d="M368,320h16V304a16,16,0,0,0-16,16"/><path class="cls-1" d="M384,320H368v16a16,16,0,0,0,16-16"/><rect class="cls-1" x="368" y="384" width="16" height="16"/><rect class="cls-1" x="384" y="128" width="16" height="16"/><rect class="cls-1" x="384" y="144" width="16" height="16"/><path class="cls-1" d="M400,160H384v16a16,16,0,0,0,16-16"/><path class="cls-1" d="M384,224h16V208a16,16,0,0,0-16,16"/><rect class="cls-1" x="384" y="224" width="16" height="16"/><rect class="cls-1" x="384" y="240" width="16" height="16"/><path class="cls-1" d="M400,256H384v16a16,16,0,0,0,16-16"/><path class="cls-1" d="M400,288h-8a8,8,0,0,0-8,8v8h8a8,8,0,0,0,8-8"/><path class="cls-1" d="M400,336h-8a8,8,0,0,0-8,8v8h8a8,8,0,0,0,8-8"/><path class="cls-1" d="M400,384H384v16a16,16,0,0,0,16-16"/><path class="cls-1" d="M0,16H16V0A16,16,0,0,0,0,16"/><rect class="cls-1" y="16" width="16" height="16"/><rect class="cls-1" y="32" width="16" height="16"/><rect class="cls-1" y="48" width="16" height="16"/><rect class="cls-1" y="64" width="16" height="16"/><rect class="cls-1" y="80" width="16" height="16"/><rect class="cls-1" y="96" width="16" height="16"/><rect class="cls-1" x="16" width="16" height="16"/><rect class="cls-1" x="16" y="96" width="16" height="16"/><rect class="cls-1" x="32" width="16" height="16"/><rect class="cls-1" x="32" y="96" width="16" height="16"/><rect class="cls-1" x="48" width="16" height="16"/><rect class="cls-1" x="48" y="96" width="16" height="16"/><rect class="cls-1" x="64" width="16" height="16"/><rect class="cls-1" x="64" y="96" width="16" height="16"/><rect class="cls-1" x="80" width="16" height="16"/><rect class="cls-1" x="80" y="96" width="16" height="16"/><rect class="cls-1" x="96" width="16" height="16"/><rect class="cls-1" x="96" y="16" width="16" height="16"/><rect class="cls-1" x="96" y="32" width="16" height="16"/><rect class="cls-1" x="96" y="48" width="16" height="16"/><rect class="cls-1" x="96" y="64" width="16" height="16"/><rect class="cls-1" x="96" y="80" width="16" height="16"/><path class="cls-1" d="M112,96H96v16a16,16,0,0,0,16-16"/><path class="cls-1" d="M32,48H48V32A16,16,0,0,0,32,48"/><rect class="cls-1" x="32" y="48" width="16" height="16"/><rect class="cls-1" x="32" y="64" width="16" height="16"/><rect class="cls-1" x="48" y="32" width="16" height="16"/><rect class="cls-1" x="48" y="48" width="16" height="16"/><rect class="cls-1" x="48" y="64" width="16" height="16"/><rect class="cls-1" x="64" y="32" width="16" height="16"/><rect class="cls-1" x="64" y="48" width="16" height="16"/><path class="cls-1" d="M80,64H64V80A16,16,0,0,0,80,64"/><path class="cls-1" d="M288,16h16V0a16,16,0,0,0-16,16"/><rect class="cls-1" x="288" y="16" width="16" height="16"/><rect class="cls-1" x="288" y="32" width="16" height="16"/><rect class="cls-1" x="288" y="48" width="16" height="16"/><rect class="cls-1" x="288" y="64" width="16" height="16"/><rect class="cls-1" x="288" y="80" width="16" height="16"/><rect class="cls-1" x="288" y="96" width="16" height="16"/><rect class="cls-1" x="304" width="16" height="16"/><rect class="cls-1" x="304" y="96" width="16" height="16"/><rect class="cls-1" x="320" width="16" height="16"/><rect class="cls-1" x="320" y="96" width="16" height="16"/><rect class="cls-1" x="336" width="16" height="16"/><rect class="cls-1" x="336" y="96" width="16" height="16"/><rect class="cls-1" x="352" width="16" height="16"/><rect class="cls-1" x="352" y="96" width="16" height="16"/><rect class="cls-1" x="368" width="16" height="16"/><rect class="cls-1" x="368" y="96" width="16" height="16"/><rect class="cls-1" x="384" width="16" height="16"/><rect class="cls-1" x="384" y="16" width="16" height="16"/><rect class="cls-1" x="384" y="32" width="16" height="16"/><rect class="cls-1" x="384" y="48" width="16" height="16"/><rect class="cls-1" x="384" y="64" width="16" height="16"/><rect class="cls-1" x="384" y="80" width="16" height="16"/><path class="cls-1" d="M400,96H384v16a16,16,0,0,0,16-16"/><path class="cls-1" d="M320,48h16V32a16,16,0,0,0-16,16"/><rect class="cls-1" x="320" y="48" width="16" height="16"/><rect class="cls-1" x="320" y="64" width="16" height="16"/><rect class="cls-1" x="336" y="32" width="16" height="16"/><rect class="cls-1" x="336" y="48" width="16" height="16"/><rect class="cls-1" x="336" y="64" width="16" height="16"/><rect class="cls-1" x="352" y="32" width="16" height="16"/><rect class="cls-1" x="352" y="48" width="16" height="16"/><path class="cls-1" d="M368,64H352V80a16,16,0,0,0,16-16"/><path class="cls-1" d="M0,304H16V288A16,16,0,0,0,0,304"/><rect class="cls-1" y="304" width="16" height="16"/><rect class="cls-1" y="320" width="16" height="16"/><rect class="cls-1" y="336" width="16" height="16"/><rect class="cls-1" y="352" width="16" height="16"/><rect class="cls-1" y="368" width="16" height="16"/><rect class="cls-1" y="384" width="16" height="16"/><rect class="cls-1" x="16" y="288" width="16" height="16"/><rect class="cls-1" x="16" y="384" width="16" height="16"/><rect class="cls-1" x="32" y="288" width="16" height="16"/><rect class="cls-1" x="32" y="384" width="16" height="16"/><rect class="cls-1" x="48" y="288" width="16" height="16"/><rect class="cls-1" x="48" y="384" width="16" height="16"/><rect class="cls-1" x="64" y="288" width="16" height="16"/><rect class="cls-1" x="64" y="384" width="16" height="16"/><rect class="cls-1" x="80" y="288" width="16" height="16"/><rect class="cls-1" x="80" y="384" width="16" height="16"/><rect class="cls-1" x="96" y="288" width="16" height="16"/><rect class="cls-1" x="96" y="304" width="16" height="16"/><rect class="cls-1" x="96" y="320" width="16" height="16"/><rect class="cls-1" x="96" y="336" width="16" height="16"/><rect class="cls-1" x="96" y="352" width="16" height="16"/><rect class="cls-1" x="96" y="368" width="16" height="16"/><path class="cls-1" d="M112,384H96v16a16,16,0,0,0,16-16"/><path class="cls-1" d="M32,336H48V320a16,16,0,0,0-16,16"/><rect class="cls-1" x="32" y="336" width="16" height="16"/><rect class="cls-1" x="32" y="352" width="16" height="16"/><rect class="cls-1" x="48" y="320" width="16" height="16"/><rect class="cls-1" x="48" y="336" width="16" height="16"/><rect class="cls-1" x="48" y="352" width="16" height="16"/><rect class="cls-1" x="64" y="320" width="16" height="16"/><rect class="cls-1" x="64" y="336" width="16" height="16"/><path class="cls-1" d="M80,352H64v16a16,16,0,0,0,16-16"/></g></g></svg>