<svg width="246" height="246" viewBox="0 0 246 246" fill="none" xmlns="http://www.w3.org/2000/svg">
    <path fill-rule="evenodd" clip-rule="evenodd" d="M68.5 27.3333V20.5H67.5V27.6667L75 37.6667V52H76V37.3333L68.5 27.3333Z" fill="black"/>
    <path d="M72 54.5C72 52.567 73.567 51 75.5 51C77.433 51 79 52.567 79 54.5V61.5C79 63.433 77.433 65 75.5 65C73.567 65 72 63.433 72 61.5V54.5Z" fill="#585858"/>
    <path d="M88 54.5C88 52.567 89.567 51 91.5 51C93.433 51 95 52.567 95 54.5V61.5C95 63.433 93.433 65 91.5 65C89.567 65 88 63.433 88 61.5V54.5Z" fill="#585858"/>
    <path d="M104 54.5C104 52.567 105.567 51 107.5 51C109.433 51 111 52.567 111 54.5V61.5C111 63.433 109.433 65 107.5 65C105.567 65 104 63.433 104 61.5V54.5Z" fill="#585858"/>
    <path d="M120 54.5C120 52.567 121.567 51 123.5 51C125.433 51 127 52.567 127 54.5V61.5C127 63.433 125.433 65 123.5 65C121.567 65 120 63.433 120 61.5V54.5Z" fill="#585858"/>
    <path d="M136 54.5C136 52.567 137.567 51 139.5 51C141.433 51 143 52.567 143 54.5V61.5C143 63.433 141.433 65 139.5 65C137.567 65 136 63.433 136 61.5V54.5Z" fill="#585858"/>
    <path d="M152 54.5C152 52.567 153.567 51 155.5 51C157.433 51 159 52.567 159 54.5V61.5C159 63.433 157.433 65 155.5 65C153.567 65 152 63.433 152 61.5V54.5Z" fill="#585858"/>
    <path d="M168 54.5C168 52.567 169.567 51 171.5 51C173.433 51 175 52.567 175 54.5V61.5C175 63.433 173.433 65 171.5 65C169.567 65 168 63.433 168 61.5V54.5Z" fill="#585858"/>
    <path fill-rule="evenodd" clip-rule="evenodd" d="M103.5 27.8333V19H102.5V28.1667L107 34.1667V51H108V33.8333L103.5 27.8333Z" fill="black"/>
    <path fill-rule="evenodd" clip-rule="evenodd" d="M127.5 10.5V32.585L124 42.585V51H123V42.415L126.5 32.415V10.5H127.5Z" fill="black"/>
    <path fill-rule="evenodd" clip-rule="evenodd" d="M143.5 14V20.6046L140 28.6046V51H139V28.3954L142.5 20.3954V14H143.5Z" fill="black"/>
    <path fill-rule="evenodd" clip-rule="evenodd" d="M161.5 14.5V36.7071L156 42.2071V51H155V41.7929L160.5 36.2929V14.5H161.5Z" fill="black"/>
    <path d="M72 17C72 19.2091 70.2091 21 68 21C65.7909 21 64 19.2091 64 17C64 14.7909 65.7909 13 68 13C70.2091 13 72 14.7909 72 17Z" fill="#F8D50E"/>
    <path fill-rule="evenodd" clip-rule="evenodd" d="M68 20C69.6569 20 71 18.6569 71 17C71 15.3431 69.6569 14 68 14C66.3431 14 65 15.3431 65 17C65 18.6569 66.3431 20 68 20ZM68 21C70.2091 21 72 19.2091 72 17C72 14.7909 70.2091 13 68 13C65.7909 13 64 14.7909 64 17C64 19.2091 65.7909 21 68 21Z" fill="black"/>
    <path d="M90 4C90 6.20914 88.2091 8 86 8C83.7909 8 82 6.20914 82 4C82 1.79086 83.7909 0 86 0C88.2091 0 90 1.79086 90 4Z" fill="#F8D50E"/>
    <path fill-rule="evenodd" clip-rule="evenodd" d="M86 7C87.6569 7 89 5.65685 89 4C89 2.34315 87.6569 1 86 1C84.3431 1 83 2.34315 83 4C83 5.65685 84.3431 7 86 7ZM86 8C88.2091 8 90 6.20914 90 4C90 1.79086 88.2091 0 86 0C83.7909 0 82 1.79086 82 4C82 6.20914 83.7909 8 86 8Z" fill="black"/>
    <path d="M107 16C107 18.2091 105.209 20 103 20C100.791 20 99 18.2091 99 16C99 13.7909 100.791 12 103 12C105.209 12 107 13.7909 107 16Z" fill="#F8D50E"/>
    <path fill-rule="evenodd" clip-rule="evenodd" d="M103 19C104.657 19 106 17.6569 106 16C106 14.3431 104.657 13 103 13C101.343 13 100 14.3431 100 16C100 17.6569 101.343 19 103 19ZM103 20C105.209 20 107 18.2091 107 16C107 13.7909 105.209 12 103 12C100.791 12 99 13.7909 99 16C99 18.2091 100.791 20 103 20Z" fill="black"/>
    <path d="M131 7C131 9.20914 129.209 11 127 11C124.791 11 123 9.20914 123 7C123 4.79086 124.791 3 127 3C129.209 3 131 4.79086 131 7Z" fill="#F8D50E"/>
    <path fill-rule="evenodd" clip-rule="evenodd" d="M127 10C128.657 10 130 8.65685 130 7C130 5.34315 128.657 4 127 4C125.343 4 124 5.34315 124 7C124 8.65685 125.343 10 127 10ZM127 11C129.209 11 131 9.20914 131 7C131 4.79086 129.209 3 127 3C124.791 3 123 4.79086 123 7C123 9.20914 124.791 11 127 11Z" fill="black"/>
    <path d="M147 11C147 13.2091 145.209 15 143 15C140.791 15 139 13.2091 139 11C139 8.79086 140.791 7 143 7C145.209 7 147 8.79086 147 11Z" fill="#F8D50E"/>
    <path fill-rule="evenodd" clip-rule="evenodd" d="M143 14C144.657 14 146 12.6569 146 11C146 9.34315 144.657 8 143 8C141.343 8 140 9.34315 140 11C140 12.6569 141.343 14 143 14ZM143 15C145.209 15 147 13.2091 147 11C147 8.79086 145.209 7 143 7C140.791 7 139 8.79086 139 11C139 13.2091 140.791 15 143 15Z" fill="black"/>
    <path d="M165 11C165 13.2091 163.209 15 161 15C158.791 15 157 13.2091 157 11C157 8.79086 158.791 7 161 7C163.209 7 165 8.79086 165 11Z" fill="#F8D50E"/>
    <path fill-rule="evenodd" clip-rule="evenodd" d="M161 14C162.657 14 164 12.6569 164 11C164 9.34315 162.657 8 161 8C159.343 8 158 9.34315 158 11C158 12.6569 159.343 14 161 14ZM161 15C163.209 15 165 13.2091 165 11C165 8.79086 163.209 7 161 7C158.791 7 157 8.79086 157 11C157 13.2091 158.791 15 161 15Z" fill="black"/>
    <path d="M180 19C180 21.2091 178.209 23 176 23C173.791 23 172 21.2091 172 19C172 16.7909 173.791 15 176 15C178.209 15 180 16.7909 180 19Z" fill="#F8D50E"/>
    <path fill-rule="evenodd" clip-rule="evenodd" d="M176 22C177.657 22 179 20.6569 179 19C179 17.3431 177.657 16 176 16C174.343 16 173 17.3431 173 19C173 20.6569 174.343 22 176 22ZM176 23C178.209 23 180 21.2091 180 19C180 16.7909 178.209 15 176 15C173.791 15 172 16.7909 172 19C172 21.2091 173.791 23 176 23Z" fill="black"/>
    <path fill-rule="evenodd" clip-rule="evenodd" d="M176.5 22V37.1919L172 42.1919V51H171V41.8081L175.5 36.8081V22H176.5Z" fill="black"/>
    <path fill-rule="evenodd" clip-rule="evenodd" d="M86.5 20.8168V7H85.5V21.1832L91 27.6832V51H92V27.3168L86.5 20.8168Z" fill="black"/>
    <path fill-rule="evenodd" clip-rule="evenodd" d="M68.5 218.667V225.5H67.5V218.333L75 208.333V194H76V208.667L68.5 218.667Z" fill="black"/>
    <path fill-rule="evenodd" clip-rule="evenodd" d="M103.5 218.167V227H102.5V217.833L107 211.833V195H108V212.167L103.5 218.167Z" fill="black"/>
    <path fill-rule="evenodd" clip-rule="evenodd" d="M127.5 235.5V213.415L124 203.415V195H123V203.585L126.5 213.585V235.5H127.5Z" fill="black"/>
    <path fill-rule="evenodd" clip-rule="evenodd" d="M143.5 232V225.395L140 217.395V195H139V217.605L142.5 225.605V232H143.5Z" fill="black"/>
    <path fill-rule="evenodd" clip-rule="evenodd" d="M161.5 231.5V209.293L156 203.793V195H155V204.207L160.5 209.707V231.5H161.5Z" fill="black"/>
    <path d="M72 229C72 226.791 70.2091 225 68 225C65.7909 225 64 226.791 64 229C64 231.209 65.7909 233 68 233C70.2091 233 72 231.209 72 229Z" fill="#F8D50E"/>
    <path fill-rule="evenodd" clip-rule="evenodd" d="M68 226C69.6569 226 71 227.343 71 229C71 230.657 69.6569 232 68 232C66.3431 232 65 230.657 65 229C65 227.343 66.3431 226 68 226ZM68 225C70.2091 225 72 226.791 72 229C72 231.209 70.2091 233 68 233C65.7909 233 64 231.209 64 229C64 226.791 65.7909 225 68 225Z" fill="black"/>
    <path d="M90 242C90 239.791 88.2091 238 86 238C83.7909 238 82 239.791 82 242C82 244.209 83.7909 246 86 246C88.2091 246 90 244.209 90 242Z" fill="#F8D50E"/>
    <path fill-rule="evenodd" clip-rule="evenodd" d="M86 239C87.6569 239 89 240.343 89 242C89 243.657 87.6569 245 86 245C84.3431 245 83 243.657 83 242C83 240.343 84.3431 239 86 239ZM86 238C88.2091 238 90 239.791 90 242C90 244.209 88.2091 246 86 246C83.7909 246 82 244.209 82 242C82 239.791 83.7909 238 86 238Z" fill="black"/>
    <path d="M107 230C107 227.791 105.209 226 103 226C100.791 226 99 227.791 99 230C99 232.209 100.791 234 103 234C105.209 234 107 232.209 107 230Z" fill="#F8D50E"/>
    <path fill-rule="evenodd" clip-rule="evenodd" d="M103 227C104.657 227 106 228.343 106 230C106 231.657 104.657 233 103 233C101.343 233 100 231.657 100 230C100 228.343 101.343 227 103 227ZM103 226C105.209 226 107 227.791 107 230C107 232.209 105.209 234 103 234C100.791 234 99 232.209 99 230C99 227.791 100.791 226 103 226Z" fill="black"/>
    <path d="M131 239C131 236.791 129.209 235 127 235C124.791 235 123 236.791 123 239C123 241.209 124.791 243 127 243C129.209 243 131 241.209 131 239Z" fill="#F8D50E"/>
    <path fill-rule="evenodd" clip-rule="evenodd" d="M127 236C128.657 236 130 237.343 130 239C130 240.657 128.657 242 127 242C125.343 242 124 240.657 124 239C124 237.343 125.343 236 127 236ZM127 235C129.209 235 131 236.791 131 239C131 241.209 129.209 243 127 243C124.791 243 123 241.209 123 239C123 236.791 124.791 235 127 235Z" fill="black"/>
    <path d="M147 235C147 232.791 145.209 231 143 231C140.791 231 139 232.791 139 235C139 237.209 140.791 239 143 239C145.209 239 147 237.209 147 235Z" fill="#F8D50E"/>
    <path fill-rule="evenodd" clip-rule="evenodd" d="M143 232C144.657 232 146 233.343 146 235C146 236.657 144.657 238 143 238C141.343 238 140 236.657 140 235C140 233.343 141.343 232 143 232ZM143 231C145.209 231 147 232.791 147 235C147 237.209 145.209 239 143 239C140.791 239 139 237.209 139 235C139 232.791 140.791 231 143 231Z" fill="black"/>
    <path d="M165 235C165 232.791 163.209 231 161 231C158.791 231 157 232.791 157 235C157 237.209 158.791 239 161 239C163.209 239 165 237.209 165 235Z" fill="#F8D50E"/>
    <path fill-rule="evenodd" clip-rule="evenodd" d="M161 232C162.657 232 164 233.343 164 235C164 236.657 162.657 238 161 238C159.343 238 158 236.657 158 235C158 233.343 159.343 232 161 232ZM161 231C163.209 231 165 232.791 165 235C165 237.209 163.209 239 161 239C158.791 239 157 237.209 157 235C157 232.791 158.791 231 161 231Z" fill="black"/>
    <path d="M180 227C180 224.791 178.209 223 176 223C173.791 223 172 224.791 172 227C172 229.209 173.791 231 176 231C178.209 231 180 229.209 180 227Z" fill="#F8D50E"/>
    <path fill-rule="evenodd" clip-rule="evenodd" d="M176 224C177.657 224 179 225.343 179 227C179 228.657 177.657 230 176 230C174.343 230 173 228.657 173 227C173 225.343 174.343 224 176 224ZM176 223C178.209 223 180 224.791 180 227C180 229.209 178.209 231 176 231C173.791 231 172 229.209 172 227C172 224.791 173.791 223 176 223Z" fill="black"/>
    <path fill-rule="evenodd" clip-rule="evenodd" d="M176.5 224V208.808L172 203.808V195H171V204.192L175.5 209.192V224H176.5Z" fill="black"/>
    <path fill-rule="evenodd" clip-rule="evenodd" d="M86.5 225.183V239H85.5V224.817L91 218.317V195H92V218.683L86.5 225.183Z" fill="black"/>
    <path d="M72 185.5C72 183.567 73.567 182 75.5 182C77.433 182 79 183.567 79 185.5V192.5C79 194.433 77.433 196 75.5 196C73.567 196 72 194.433 72 192.5V185.5Z" fill="#585858"/>
    <path d="M88 185.5C88 183.567 89.567 182 91.5 182C93.433 182 95 183.567 95 185.5V192.5C95 194.433 93.433 196 91.5 196C89.567 196 88 194.433 88 192.5V185.5Z" fill="#585858"/>
    <path d="M104 185.5C104 183.567 105.567 182 107.5 182C109.433 182 111 183.567 111 185.5V192.5C111 194.433 109.433 196 107.5 196C105.567 196 104 194.433 104 192.5V185.5Z" fill="#585858"/>
    <path d="M120 185.5C120 183.567 121.567 182 123.5 182C125.433 182 127 183.567 127 185.5V192.5C127 194.433 125.433 196 123.5 196C121.567 196 120 194.433 120 192.5V185.5Z" fill="#585858"/>
    <path d="M136 185.5C136 183.567 137.567 182 139.5 182C141.433 182 143 183.567 143 185.5V192.5C143 194.433 141.433 196 139.5 196C137.567 196 136 194.433 136 192.5V185.5Z" fill="#585858"/>
    <path d="M152 185.5C152 183.567 153.567 182 155.5 182C157.433 182 159 183.567 159 185.5V192.5C159 194.433 157.433 196 155.5 196C153.567 196 152 194.433 152 192.5V185.5Z" fill="#585858"/>
    <path d="M168 185.5C168 183.567 169.567 182 171.5 182C173.433 182 175 183.567 175 185.5V192.5C175 194.433 173.433 196 171.5 196C169.567 196 168 194.433 168 192.5V185.5Z" fill="#585858"/>
    <path fill-rule="evenodd" clip-rule="evenodd" d="M27.3333 68.5H20.5V67.5H27.6667L37.6667 75H52V76H37.3333L27.3333 68.5Z" fill="black"/>
    <path fill-rule="evenodd" clip-rule="evenodd" d="M27.8333 103.5H19V102.5H28.1667L34.1667 107H51V108H33.8333L27.8333 103.5Z" fill="black"/>
    <path fill-rule="evenodd" clip-rule="evenodd" d="M10.5 127.5H32.585L42.585 124H51V123H42.415L32.415 126.5H10.5V127.5Z" fill="black"/>
    <path fill-rule="evenodd" clip-rule="evenodd" d="M14 143.5H20.6046L28.6046 140H51V139H28.3954L20.3954 142.5H14V143.5Z" fill="black"/>
    <path fill-rule="evenodd" clip-rule="evenodd" d="M14.5 161.5H36.7071L42.2071 156H51V155H41.7929L36.2929 160.5H14.5V161.5Z" fill="black"/>
    <path d="M17 72C19.2091 72 21 70.2091 21 68C21 65.7909 19.2091 64 17 64C14.7909 64 13 65.7909 13 68C13 70.2091 14.7909 72 17 72Z" fill="#F8D50E"/>
    <path fill-rule="evenodd" clip-rule="evenodd" d="M20 68C20 69.6569 18.6569 71 17 71C15.3431 71 14 69.6569 14 68C14 66.3431 15.3431 65 17 65C18.6569 65 20 66.3431 20 68ZM21 68C21 70.2091 19.2091 72 17 72C14.7909 72 13 70.2091 13 68C13 65.7909 14.7909 64 17 64C19.2091 64 21 65.7909 21 68Z" fill="black"/>
    <path d="M4 90C6.20914 90 8 88.2091 8 86C8 83.7909 6.20914 82 4 82C1.79086 82 -9.65645e-08 83.7909 0 86C9.65645e-08 88.2091 1.79086 90 4 90Z" fill="#F8D50E"/>
    <path fill-rule="evenodd" clip-rule="evenodd" d="M7 86C7 87.6569 5.65685 89 4 89C2.34315 89 1 87.6569 1 86C1 84.3431 2.34315 83 4 83C5.65685 83 7 84.3431 7 86ZM8 86C8 88.2091 6.20914 90 4 90C1.79086 90 9.65645e-08 88.2091 0 86C-9.65645e-08 83.7909 1.79086 82 4 82C6.20914 82 8 83.7909 8 86Z" fill="black"/>
    <path d="M16 107C18.2091 107 20 105.209 20 103C20 100.791 18.2091 99 16 99C13.7909 99 12 100.791 12 103C12 105.209 13.7909 107 16 107Z" fill="#F8D50E"/>
    <path fill-rule="evenodd" clip-rule="evenodd" d="M19 103C19 104.657 17.6569 106 16 106C14.3431 106 13 104.657 13 103C13 101.343 14.3431 100 16 100C17.6569 100 19 101.343 19 103ZM20 103C20 105.209 18.2091 107 16 107C13.7909 107 12 105.209 12 103C12 100.791 13.7909 99 16 99C18.2091 99 20 100.791 20 103Z" fill="black"/>
    <path d="M7 131C9.20914 131 11 129.209 11 127C11 124.791 9.20914 123 7 123C4.79086 123 3 124.791 3 127C3 129.209 4.79086 131 7 131Z" fill="#F8D50E"/>
    <path fill-rule="evenodd" clip-rule="evenodd" d="M10 127C10 128.657 8.65685 130 7 130C5.34315 130 4 128.657 4 127C4 125.343 5.34315 124 7 124C8.65685 124 10 125.343 10 127ZM11 127C11 129.209 9.20914 131 7 131C4.79086 131 3 129.209 3 127C3 124.791 4.79086 123 7 123C9.20914 123 11 124.791 11 127Z" fill="black"/>
    <path d="M11 147C13.2091 147 15 145.209 15 143C15 140.791 13.2091 139 11 139C8.79086 139 7 140.791 7 143C7 145.209 8.79086 147 11 147Z" fill="#F8D50E"/>
    <path fill-rule="evenodd" clip-rule="evenodd" d="M14 143C14 144.657 12.6569 146 11 146C9.34315 146 8 144.657 8 143C8 141.343 9.34315 140 11 140C12.6569 140 14 141.343 14 143ZM15 143C15 145.209 13.2091 147 11 147C8.79086 147 7 145.209 7 143C7 140.791 8.79086 139 11 139C13.2091 139 15 140.791 15 143Z" fill="black"/>
    <path d="M11 165C13.2091 165 15 163.209 15 161C15 158.791 13.2091 157 11 157C8.79086 157 7 158.791 7 161C7 163.209 8.79086 165 11 165Z" fill="#F8D50E"/>
    <path fill-rule="evenodd" clip-rule="evenodd" d="M14 161C14 162.657 12.6569 164 11 164C9.34315 164 8 162.657 8 161C8 159.343 9.34315 158 11 158C12.6569 158 14 159.343 14 161ZM15 161C15 163.209 13.2091 165 11 165C8.79086 165 7 163.209 7 161C7 158.791 8.79086 157 11 157C13.2091 157 15 158.791 15 161Z" fill="black"/>
    <path d="M19 180C21.2091 180 23 178.209 23 176C23 173.791 21.2091 172 19 172C16.7909 172 15 173.791 15 176C15 178.209 16.7909 180 19 180Z" fill="#F8D50E"/>
    <path fill-rule="evenodd" clip-rule="evenodd" d="M22 176C22 177.657 20.6569 179 19 179C17.3431 179 16 177.657 16 176C16 174.343 17.3431 173 19 173C20.6569 173 22 174.343 22 176ZM23 176C23 178.209 21.2091 180 19 180C16.7909 180 15 178.209 15 176C15 173.791 16.7909 172 19 172C21.2091 172 23 173.791 23 176Z" fill="black"/>
    <path fill-rule="evenodd" clip-rule="evenodd" d="M22 176.5H37.1919L42.1919 172H51V171H41.8081L36.8081 175.5H22V176.5Z" fill="black"/>
    <path fill-rule="evenodd" clip-rule="evenodd" d="M20.8168 86.5H7V85.5H21.1832L27.6832 91H51V92H27.3168L20.8168 86.5Z" fill="black"/>
    <path d="M54.5 72C52.567 72 51 73.567 51 75.5C51 77.433 52.567 79 54.5 79H61.5C63.433 79 65 77.433 65 75.5C65 73.567 63.433 72 61.5 72H54.5Z" fill="#585858"/>
    <path d="M54.5 88C52.567 88 51 89.567 51 91.5C51 93.433 52.567 95 54.5 95H61.5C63.433 95 65 93.433 65 91.5C65 89.567 63.433 88 61.5 88H54.5Z" fill="#585858"/>
    <path d="M54.5 104C52.567 104 51 105.567 51 107.5C51 109.433 52.567 111 54.5 111H61.5C63.433 111 65 109.433 65 107.5C65 105.567 63.433 104 61.5 104H54.5Z" fill="#585858"/>
    <path d="M54.5 120C52.567 120 51 121.567 51 123.5C51 125.433 52.567 127 54.5 127H61.5C63.433 127 65 125.433 65 123.5C65 121.567 63.433 120 61.5 120H54.5Z" fill="#585858"/>
    <path d="M54.5 136C52.567 136 51 137.567 51 139.5C51 141.433 52.567 143 54.5 143H61.5C63.433 143 65 141.433 65 139.5C65 137.567 63.433 136 61.5 136H54.5Z" fill="#585858"/>
    <path d="M54.5 152C52.567 152 51 153.567 51 155.5C51 157.433 52.567 159 54.5 159H61.5C63.433 159 65 157.433 65 155.5C65 153.567 63.433 152 61.5 152H54.5Z" fill="#585858"/>
    <path d="M54.5 168C52.567 168 51 169.567 51 171.5C51 173.433 52.567 175 54.5 175H61.5C63.433 175 65 173.433 65 171.5C65 169.567 63.433 168 61.5 168H54.5Z" fill="#585858"/>
    <path fill-rule="evenodd" clip-rule="evenodd" d="M218.667 68.5H225.5V67.5H218.333L208.333 75H194V76H208.667L218.667 68.5Z" fill="black"/>
    <path fill-rule="evenodd" clip-rule="evenodd" d="M218.167 103.5H227V102.5H217.833L211.833 107H195V108H212.167L218.167 103.5Z" fill="black"/>
    <path fill-rule="evenodd" clip-rule="evenodd" d="M235.5 127.5H213.415L203.415 124H195V123H203.585L213.585 126.5H235.5V127.5Z" fill="black"/>
    <path fill-rule="evenodd" clip-rule="evenodd" d="M232 143.5H225.395L217.395 140H195V139H217.605L225.605 142.5H232V143.5Z" fill="black"/>
    <path fill-rule="evenodd" clip-rule="evenodd" d="M231.5 161.5H209.293L203.793 156H195V155H204.207L209.707 160.5H231.5V161.5Z" fill="black"/>
    <path d="M229 72C226.791 72 225 70.2091 225 68C225 65.7909 226.791 64 229 64C231.209 64 233 65.7909 233 68C233 70.2091 231.209 72 229 72Z" fill="#F8D50E"/>
    <path fill-rule="evenodd" clip-rule="evenodd" d="M226 68C226 69.6569 227.343 71 229 71C230.657 71 232 69.6569 232 68C232 66.3431 230.657 65 229 65C227.343 65 226 66.3431 226 68ZM225 68C225 70.2091 226.791 72 229 72C231.209 72 233 70.2091 233 68C233 65.7909 231.209 64 229 64C226.791 64 225 65.7909 225 68Z" fill="black"/>
    <path d="M242 90C239.791 90 238 88.2091 238 86C238 83.7909 239.791 82 242 82C244.209 82 246 83.7909 246 86C246 88.2091 244.209 90 242 90Z" fill="#F8D50E"/>
    <path fill-rule="evenodd" clip-rule="evenodd" d="M239 86C239 87.6569 240.343 89 242 89C243.657 89 245 87.6569 245 86C245 84.3431 243.657 83 242 83C240.343 83 239 84.3431 239 86ZM238 86C238 88.2091 239.791 90 242 90C244.209 90 246 88.2091 246 86C246 83.7909 244.209 82 242 82C239.791 82 238 83.7909 238 86Z" fill="black"/>
    <path d="M230 107C227.791 107 226 105.209 226 103C226 100.791 227.791 99 230 99C232.209 99 234 100.791 234 103C234 105.209 232.209 107 230 107Z" fill="#F8D50E"/>
    <path fill-rule="evenodd" clip-rule="evenodd" d="M227 103C227 104.657 228.343 106 230 106C231.657 106 233 104.657 233 103C233 101.343 231.657 100 230 100C228.343 100 227 101.343 227 103ZM226 103C226 105.209 227.791 107 230 107C232.209 107 234 105.209 234 103C234 100.791 232.209 99 230 99C227.791 99 226 100.791 226 103Z" fill="black"/>
    <path d="M239 131C236.791 131 235 129.209 235 127C235 124.791 236.791 123 239 123C241.209 123 243 124.791 243 127C243 129.209 241.209 131 239 131Z" fill="#F8D50E"/>
    <path fill-rule="evenodd" clip-rule="evenodd" d="M236 127C236 128.657 237.343 130 239 130C240.657 130 242 128.657 242 127C242 125.343 240.657 124 239 124C237.343 124 236 125.343 236 127ZM235 127C235 129.209 236.791 131 239 131C241.209 131 243 129.209 243 127C243 124.791 241.209 123 239 123C236.791 123 235 124.791 235 127Z" fill="black"/>
    <path d="M235 147C232.791 147 231 145.209 231 143C231 140.791 232.791 139 235 139C237.209 139 239 140.791 239 143C239 145.209 237.209 147 235 147Z" fill="#F8D50E"/>
    <path fill-rule="evenodd" clip-rule="evenodd" d="M232 143C232 144.657 233.343 146 235 146C236.657 146 238 144.657 238 143C238 141.343 236.657 140 235 140C233.343 140 232 141.343 232 143ZM231 143C231 145.209 232.791 147 235 147C237.209 147 239 145.209 239 143C239 140.791 237.209 139 235 139C232.791 139 231 140.791 231 143Z" fill="black"/>
    <path d="M235 165C232.791 165 231 163.209 231 161C231 158.791 232.791 157 235 157C237.209 157 239 158.791 239 161C239 163.209 237.209 165 235 165Z" fill="#F8D50E"/>
    <path fill-rule="evenodd" clip-rule="evenodd" d="M232 161C232 162.657 233.343 164 235 164C236.657 164 238 162.657 238 161C238 159.343 236.657 158 235 158C233.343 158 232 159.343 232 161ZM231 161C231 163.209 232.791 165 235 165C237.209 165 239 163.209 239 161C239 158.791 237.209 157 235 157C232.791 157 231 158.791 231 161Z" fill="black"/>
    <path d="M227 180C224.791 180 223 178.209 223 176C223 173.791 224.791 172 227 172C229.209 172 231 173.791 231 176C231 178.209 229.209 180 227 180Z" fill="#F8D50E"/>
    <path fill-rule="evenodd" clip-rule="evenodd" d="M224 176C224 177.657 225.343 179 227 179C228.657 179 230 177.657 230 176C230 174.343 228.657 173 227 173C225.343 173 224 174.343 224 176ZM223 176C223 178.209 224.791 180 227 180C229.209 180 231 178.209 231 176C231 173.791 229.209 172 227 172C224.791 172 223 173.791 223 176Z" fill="black"/>
    <path fill-rule="evenodd" clip-rule="evenodd" d="M224 176.5H208.808L203.808 172H195V171H204.192L209.192 175.5H224V176.5Z" fill="black"/>
    <path fill-rule="evenodd" clip-rule="evenodd" d="M225.183 86.5H239V85.5H224.817L218.317 91H195V92H218.683L225.183 86.5Z" fill="black"/>
    <path d="M185.5 72C183.567 72 182 73.567 182 75.5C182 77.433 183.567 79 185.5 79H192.5C194.433 79 196 77.433 196 75.5C196 73.567 194.433 72 192.5 72H185.5Z" fill="#585858"/>
    <path d="M185.5 88C183.567 88 182 89.567 182 91.5C182 93.433 183.567 95 185.5 95H192.5C194.433 95 196 93.433 196 91.5C196 89.567 194.433 88 192.5 88H185.5Z" fill="#585858"/>
    <path d="M185.5 104C183.567 104 182 105.567 182 107.5C182 109.433 183.567 111 185.5 111H192.5C194.433 111 196 109.433 196 107.5C196 105.567 194.433 104 192.5 104H185.5Z" fill="#585858"/>
    <path d="M185.5 120C183.567 120 182 121.567 182 123.5C182 125.433 183.567 127 185.5 127H192.5C194.433 127 196 125.433 196 123.5C196 121.567 194.433 120 192.5 120H185.5Z" fill="#585858"/>
    <path d="M185.5 136C183.567 136 182 137.567 182 139.5C182 141.433 183.567 143 185.5 143H192.5C194.433 143 196 141.433 196 139.5C196 137.567 194.433 136 192.5 136H185.5Z" fill="#585858"/>
    <path d="M185.5 152C183.567 152 182 153.567 182 155.5C182 157.433 183.567 159 185.5 159H192.5C194.433 159 196 157.433 196 155.5C196 153.567 194.433 152 192.5 152H185.5Z" fill="#585858"/>
    <path d="M185.5 168C183.567 168 182 169.567 182 171.5C182 173.433 183.567 175 185.5 175H192.5C194.433 175 196 173.433 196 171.5C196 169.567 194.433 168 192.5 168H185.5Z" fill="#585858"/>
    <path d="M58 63C58 60.2386 60.2386 58 63 58H184C186.761 58 189 60.2386 189 63V184C189 186.761 186.761 189 184 189H63C60.2386 189 58 186.761 58 184V63Z" fill="#BABABA"/>
    <path fill-rule="evenodd" clip-rule="evenodd" d="M184 59H63C60.7909 59 59 60.7909 59 63V184C59 186.209 60.7909 188 63 188H184C186.209 188 188 186.209 188 184V63C188 60.7909 186.209 59 184 59ZM63 58C60.2386 58 58 60.2386 58 63V184C58 186.761 60.2386 189 63 189H184C186.761 189 189 186.761 189 184V63C189 60.2386 186.761 58 184 58H63Z" fill="#1A1A1A"/>
    <path d="M71 76C71 73.2386 73.2386 71 76 71H171C173.761 71 176 73.2386 176 76V171C176 173.761 173.761 176 171 176H76C73.2386 176 71 173.761 71 171V76Z" fill="#D9D9D9"/>
    <path fill-rule="evenodd" clip-rule="evenodd" d="M171 72H76C73.7909 72 72 73.7909 72 76V171C72 173.209 73.7909 175 76 175H171C173.209 175 175 173.209 175 171V76C175 73.7909 173.209 72 171 72ZM76 71C73.2386 71 71 73.2386 71 76V171C71 173.761 73.2386 176 76 176H171C173.761 176 176 173.761 176 171V76C176 73.2386 173.761 71 171 71H76Z" fill="#1A1A1A"/>
</svg>
